# This file uses centimeters as units for non-parametric coordinates.

mtllib prop_cup.mtl
g default
v 3.240041 0.000000 -3.142469
v 2.876500 0.000000 -3.406598
v 2.427138 0.000000 -3.406598
v 2.063596 0.000000 -3.142469
v 1.924736 0.000000 -2.715101
v 2.063597 0.000000 -2.287732
v 2.427138 0.000000 -2.023604
v 2.876500 0.000000 -2.023604
v 3.240041 0.000000 -2.287732
v 3.378902 0.000000 -2.715101
v 3.300836 3.530353 -3.186639
v 2.899721 3.530353 -3.478066
v 2.403916 3.530353 -3.478066
v 2.002802 3.530353 -3.186639
v 1.849590 3.530353 -2.715101
v 2.002802 3.530353 -2.243563
v 2.403917 3.530353 -1.952136
v 2.899721 3.530353 -1.952136
v 3.300836 3.530353 -2.243563
v 3.454048 3.530353 -2.715101
v 2.651819 0.000000 -2.715101
v 3.300836 0.706071 -3.186639
v 3.454048 0.706071 -2.715101
v 3.300836 0.706071 -2.243563
v 2.899721 0.706071 -1.952136
v 2.403917 0.706071 -1.952136
v 2.002802 0.706071 -2.243563
v 1.849590 0.706071 -2.715101
v 2.002802 0.706071 -3.186639
v 2.403916 0.706071 -3.478066
v 2.899721 0.706071 -3.478066
v 2.876500 0.673001 -3.406598
v 3.240041 0.673001 -3.142469
v 2.427138 0.673001 -3.406598
v 2.063596 0.673001 -3.142469
v 1.924736 0.673001 -2.715101
v 2.063596 0.673001 -2.287732
v 2.427138 0.673001 -2.023604
v 2.876500 0.673001 -2.023604
v 3.240041 0.673001 -2.287732
v 3.378902 0.673001 -2.715101
v 3.246999 3.530353 -3.147524
v 2.879157 3.530353 -3.414777
v 2.424480 3.530353 -3.414777
v 2.056639 3.530353 -3.147524
v 1.916136 3.530353 -2.715101
v 2.056639 3.530353 -2.282677
v 2.424480 3.530353 -2.015425
v 2.879157 3.530353 -2.015425
v 3.246999 3.530353 -2.282677
v 3.387502 3.530353 -2.715101
v 3.176302 0.289375 -3.096160
v 2.852154 0.289375 -3.331667
v 2.651819 0.289375 -2.715101
v 2.451484 0.289375 -3.331667
v 2.127336 0.289375 -3.096160
v 2.003522 0.289375 -2.715101
v 2.127336 0.289375 -2.334042
v 2.451484 0.289375 -2.098534
v 2.852154 0.289375 -2.098534
v 3.176302 0.289375 -2.334042
v 3.300115 0.289375 -2.715101
vt 0.614563 0.073013
vt 0.543758 0.021572
vt 0.456240 0.021573
vt 0.385441 0.073018
vt 0.358391 0.156251
vt 0.385437 0.239487
vt 0.456242 0.290928
vt 0.543760 0.290927
vt 0.614559 0.239482
vt 0.641609 0.156249
vt 0.375493 0.312502
vt 0.399868 0.312501
vt 0.424985 0.312501
vt 0.449982 0.312503
vt 0.474806 0.312501
vt 0.499795 0.312501
vt 0.524779 0.312501
vt 0.549975 0.312501
vt 0.574981 0.312503
vt 0.599806 0.312501
vt 0.624967 0.312502
vt 0.375000 0.687500
vt 0.400000 0.687500
vt 0.425000 0.687500
vt 0.450000 0.687500
vt 0.475000 0.687500
vt 0.500000 0.687500
vt 0.525000 0.687500
vt 0.550000 0.687500
vt 0.575000 0.687500
vt 0.600000 0.687500
vt 0.625000 0.687500
vt 0.626409 0.751909
vt 0.548284 0.695147
vt 0.451716 0.695147
vt 0.373591 0.751909
vt 0.343750 0.843750
vt 0.373591 0.935591
vt 0.451716 0.992353
vt 0.548284 0.992353
vt 0.626409 0.935591
vt 0.656250 0.843750
vt 0.500000 0.156250
vt 0.500000 0.843750
vt 0.625000 0.387500
vt 0.375000 0.387500
vt 0.600000 0.387500
vt 0.575000 0.387500
vt 0.550000 0.387500
vt 0.525000 0.387500
vt 0.500000 0.387500
vt 0.475000 0.387500
vt 0.450000 0.387500
vt 0.425000 0.387500
vt 0.400000 0.387500
vt 0.400000 0.387500
vt 0.375000 0.387500
vt 0.425000 0.387500
vt 0.450000 0.387500
vt 0.475000 0.387500
vt 0.500000 0.387500
vt 0.525000 0.387500
vt 0.550000 0.387500
vt 0.575000 0.387500
vt 0.600000 0.387500
vt 0.625000 0.387500
vt 0.626409 0.935591
vt 0.548284 0.992353
vt 0.451716 0.992353
vt 0.373591 0.935591
vt 0.343750 0.843750
vt 0.373591 0.751909
vt 0.451716 0.695147
vt 0.548284 0.695147
vt 0.626409 0.751909
vt 0.656250 0.843750
vt 0.626409 0.935591
vt 0.548284 0.992353
vt 0.451716 0.992353
vt 0.373591 0.935591
vt 0.343750 0.843750
vt 0.373591 0.751909
vt 0.451716 0.695147
vt 0.548284 0.695147
vt 0.626409 0.751909
vt 0.656250 0.843750
vn 0.587785 0.000000 -0.809017
vn 0.587785 0.000000 -0.809017
vn 0.587785 0.000000 -0.809017
vn 0.587785 0.000000 -0.809017
vn -0.000000 -0.000000 -1.000000
vn -0.000000 -0.000000 -1.000000
vn -0.000000 -0.000000 -1.000000
vn -0.000000 -0.000000 -1.000000
vn -0.587785 -0.000000 -0.809017
vn -0.587785 -0.000000 -0.809017
vn -0.587785 -0.000000 -0.809017
vn -0.587785 -0.000000 -0.809017
vn -0.951056 -0.000000 -0.309017
vn -0.951056 -0.000000 -0.309017
vn -0.951056 -0.000000 -0.309017
vn -0.951056 -0.000000 -0.309017
vn -0.951056 -0.000000 0.309017
vn -0.951056 -0.000000 0.309017
vn -0.951056 -0.000000 0.309017
vn -0.951056 -0.000000 0.309017
vn -0.587785 -0.000000 0.809017
vn -0.587785 -0.000000 0.809017
vn -0.587785 -0.000000 0.809017
vn -0.587785 -0.000000 0.809017
vn 0.000000 0.000000 1.000000
vn 0.000000 0.000000 1.000000
vn 0.000000 0.000000 1.000000
vn 0.000000 0.000000 1.000000
vn 0.587785 -0.000000 0.809017
vn 0.587785 -0.000000 0.809017
vn 0.587785 -0.000000 0.809017
vn 0.587785 -0.000000 0.809017
vn 0.951056 0.000000 0.309017
vn 0.951056 0.000000 0.309017
vn 0.951056 0.000000 0.309017
vn 0.951056 0.000000 0.309017
vn 0.951056 0.000000 -0.309017
vn 0.951056 0.000000 -0.309017
vn 0.951056 0.000000 -0.309017
vn 0.951056 0.000000 -0.309017
vn 0.000000 -1.000000 0.000000
vn 0.000000 -1.000000 0.000000
vn 0.000000 -1.000000 0.000000
vn 0.000000 -1.000000 0.000000
vn 0.000000 -1.000000 0.000000
vn 0.000000 -1.000000 0.000000
vn -0.000000 -1.000000 0.000000
vn -0.000000 -1.000000 0.000000
vn 0.000000 -1.000000 0.000000
vn 0.000000 -1.000000 0.000000
vn 0.000000 -1.000000 0.000000
vn 0.000000 1.000000 0.000000
vn 0.000000 1.000000 0.000000
vn 0.000000 1.000000 0.000000
vn 0.000000 1.000000 0.000000
vn 0.000000 1.000000 0.000000
vn 0.000000 1.000000 0.000000
vn 0.000000 1.000000 -0.000000
vn 0.000000 1.000000 -0.000000
vn 0.000000 1.000000 0.000000
vn 0.000000 1.000000 0.000000
vn 0.000000 1.000000 0.000000
vn 0.951056 0.000000 -0.309017
vn 0.951056 0.000000 -0.309017
vn 0.951056 0.000000 -0.309017
vn 0.951056 0.000000 -0.309017
vn 0.951056 0.000000 0.309017
vn 0.951056 0.000000 0.309017
vn 0.951056 0.000000 0.309017
vn 0.951056 0.000000 0.309017
vn 0.587785 0.000000 0.809017
vn 0.587785 0.000000 0.809017
vn 0.587785 0.000000 0.809017
vn 0.587785 0.000000 0.809017
vn 0.000000 0.000000 1.000000
vn 0.000000 0.000000 1.000000
vn 0.000000 0.000000 1.000000
vn 0.000000 0.000000 1.000000
vn -0.587785 0.000000 0.809017
vn -0.587785 0.000000 0.809017
vn -0.587785 0.000000 0.809017
vn -0.587785 0.000000 0.809017
vn -0.951056 0.000000 0.309017
vn -0.951056 0.000000 0.309017
vn -0.951056 0.000000 0.309017
vn -0.951056 0.000000 0.309017
vn -0.951056 0.000000 -0.309017
vn -0.951056 0.000000 -0.309017
vn -0.951056 0.000000 -0.309017
vn -0.951056 0.000000 -0.309017
vn -0.587785 0.000000 -0.809017
vn -0.587785 0.000000 -0.809017
vn -0.587785 0.000000 -0.809017
vn -0.587785 0.000000 -0.809017
vn -0.000000 0.000000 -1.000000
vn -0.000000 0.000000 -1.000000
vn -0.000000 0.000000 -1.000000
vn -0.000000 0.000000 -1.000000
vn 0.587785 0.000000 -0.809017
vn 0.587785 0.000000 -0.809017
vn 0.587785 0.000000 -0.809017
vn 0.587785 0.000000 -0.809017
vn 0.246833 -0.907553 -0.339737
vn 0.246833 -0.907553 -0.339737
vn 0.246833 -0.907553 -0.339737
vn 0.246833 -0.907553 -0.339737
vn -0.000000 -0.907553 -0.419938
vn -0.000000 -0.907553 -0.419938
vn -0.000000 -0.907553 -0.419938
vn -0.000000 -0.907553 -0.419938
vn -0.246834 -0.907552 -0.339738
vn -0.246834 -0.907552 -0.339738
vn -0.246834 -0.907552 -0.339738
vn -0.246834 -0.907552 -0.339738
vn -0.399385 -0.907553 -0.129768
vn -0.399385 -0.907553 -0.129768
vn -0.399385 -0.907553 -0.129768
vn -0.399385 -0.907552 -0.129768
vn -0.399385 -0.907552 0.129768
vn -0.399385 -0.907553 0.129768
vn -0.399385 -0.907553 0.129768
vn -0.399385 -0.907553 0.129768
vn -0.246833 -0.907553 0.339737
vn -0.246833 -0.907553 0.339737
vn -0.246833 -0.907553 0.339737
vn -0.246833 -0.907553 0.339737
vn 0.000000 -0.907553 0.419938
vn 0.000000 -0.907553 0.419938
vn 0.000000 -0.907553 0.419938
vn 0.000000 -0.907553 0.419937
vn 0.246833 -0.907553 0.339737
vn 0.246833 -0.907553 0.339737
vn 0.246833 -0.907553 0.339737
vn 0.246833 -0.907553 0.339737
vn 0.399384 -0.907553 0.129768
vn 0.399384 -0.907553 0.129768
vn 0.399384 -0.907553 0.129768
vn 0.399384 -0.907553 0.129768
vn 0.399385 -0.907553 -0.129768
vn 0.399385 -0.907553 -0.129768
vn 0.399385 -0.907553 -0.129768
vn 0.399385 -0.907553 -0.129768
vn 0.000000 1.000000 0.000000
vn 0.000000 1.000000 0.000000
vn 0.000000 1.000000 0.000000
vn 0.000000 1.000000 0.000000
vn 0.000000 1.000000 0.000002
vn 0.000000 1.000000 0.000002
vn 0.000000 1.000000 0.000002
vn 0.000000 1.000000 0.000002
vn 0.000000 1.000000 -0.000002
vn 0.000000 1.000000 -0.000002
vn 0.000000 1.000000 -0.000002
vn 0.000000 1.000000 -0.000002
vn 0.000000 1.000000 0.000000
vn 0.000000 1.000000 0.000000
vn 0.000000 1.000000 0.000000
vn 0.000000 1.000000 0.000000
vn 0.000000 1.000000 -0.000001
vn 0.000000 1.000000 -0.000001
vn 0.000000 1.000000 -0.000001
vn 0.000000 1.000000 -0.000001
vn 0.000000 1.000000 0.000001
vn 0.000000 1.000000 0.000001
vn 0.000000 1.000000 0.000001
vn 0.000000 1.000000 0.000001
vn 0.000000 1.000000 -0.000002
vn 0.000000 1.000000 -0.000002
vn 0.000000 1.000000 -0.000002
vn 0.000000 1.000000 -0.000002
vn 0.000000 1.000000 -0.000001
vn 0.000000 1.000000 -0.000001
vn 0.000000 1.000000 -0.000001
vn 0.000000 1.000000 -0.000001
vn 0.000000 1.000000 0.000000
vn 0.000000 1.000000 0.000000
vn 0.000000 1.000000 0.000000
vn 0.000000 1.000000 0.000000
vn 0.000000 1.000000 0.000000
vn 0.000000 1.000000 0.000000
vn 0.000000 1.000000 0.000000
vn 0.000000 1.000000 0.000000
vn -0.587592 0.025635 0.808751
vn -0.587592 0.025635 0.808751
vn -0.587592 0.025635 0.808751
vn -0.587592 0.025635 0.808751
vn 0.000000 0.025635 0.999671
vn 0.000000 0.025635 0.999671
vn 0.000000 0.025635 0.999671
vn 0.000000 0.025635 0.999671
vn 0.587592 0.025635 0.808751
vn 0.587592 0.025635 0.808751
vn 0.587592 0.025635 0.808751
vn 0.587592 0.025635 0.808751
vn 0.950744 0.025635 0.308915
vn 0.950744 0.025635 0.308915
vn 0.950744 0.025635 0.308915
vn 0.950744 0.025635 0.308915
vn 0.950744 0.025635 -0.308915
vn 0.950744 0.025635 -0.308915
vn 0.950744 0.025635 -0.308915
vn 0.950744 0.025635 -0.308915
vn 0.587592 0.025635 -0.808751
vn 0.587592 0.025635 -0.808751
vn 0.587592 0.025635 -0.808751
vn 0.587592 0.025635 -0.808751
vn 0.000000 0.025635 -0.999671
vn 0.000000 0.025635 -0.999671
vn 0.000000 0.025635 -0.999671
vn 0.000000 0.025635 -0.999671
vn -0.587592 0.025635 -0.808751
vn -0.587592 0.025635 -0.808751
vn -0.587592 0.025635 -0.808751
vn -0.587592 0.025635 -0.808751
vn -0.950744 0.025635 -0.308916
vn -0.950744 0.025635 -0.308916
vn -0.950744 0.025635 -0.308916
vn -0.950744 0.025635 -0.308916
vn -0.950744 0.025635 0.308916
vn -0.950744 0.025635 0.308916
vn -0.950744 0.025635 0.308916
vn -0.950744 0.025635 0.308916
s off
g pCylinder3
usemtl initialShadingGroup
f 1/11/1 2/12/2 32/56/3 33/57/4
f 2/12/5 3/13/6 34/58/7 32/56/8
f 3/13/9 4/14/10 35/59/11 34/58/12
f 4/14/13 5/15/14 36/60/15 35/59/16
f 5/15/17 6/16/18 37/61/19 36/60/20
f 6/16/21 7/17/22 38/62/23 37/61/24
f 7/17/25 8/18/26 39/63/27 38/62/28
f 8/18/29 9/19/30 40/64/31 39/63/32
f 9/19/33 10/20/34 41/65/35 40/64/36
f 10/20/37 1/21/38 33/66/39 41/65/40
s 1
f 2/2/41 1/1/42 21/43/43
f 3/3/44 2/2/41 21/43/43
f 4/4/45 3/3/44 21/43/43
f 5/5/46 4/4/45 21/43/43
f 6/6/47 5/5/46 21/43/43
f 7/7/48 6/6/47 21/43/43
f 8/8/49 7/7/48 21/43/43
f 9/9/50 8/8/49 21/43/43
f 10/10/51 9/9/50 21/43/43
f 1/1/42 10/10/51 21/43/43
s 2
f 52/77/52 53/78/53 54/44/54
f 53/78/53 55/79/55 54/44/54
f 55/79/55 56/80/56 54/44/54
f 56/80/56 57/81/57 54/44/54
f 57/81/57 58/82/58 54/44/54
f 58/82/58 59/83/59 54/44/54
f 59/83/59 60/84/60 54/44/54
f 60/84/60 61/85/61 54/44/54
f 61/85/61 62/86/62 54/44/54
f 62/86/62 52/77/52 54/44/54
s off
f 23/47/63 22/45/64 11/32/65 20/31/66
f 24/48/67 23/47/68 20/31/69 19/30/70
f 25/49/71 24/48/72 19/30/73 18/29/74
f 26/50/75 25/49/76 18/29/77 17/28/78
f 27/51/79 26/50/80 17/28/81 16/27/82
f 28/52/83 27/51/84 16/27/85 15/26/86
f 29/53/87 28/52/88 15/26/89 14/25/90
f 30/54/91 29/53/92 14/25/93 13/24/94
f 31/55/95 30/54/96 13/24/97 12/23/98
f 22/46/99 31/55/100 12/23/101 11/22/102
f 31/55/103 22/46/104 33/57/105 32/56/106
f 30/54/107 31/55/108 32/56/109 34/58/110
f 29/53/111 30/54/112 34/58/113 35/59/114
f 28/52/115 29/53/116 35/59/117 36/60/118
f 27/51/119 28/52/120 36/60/121 37/61/122
f 26/50/123 27/51/124 37/61/125 38/62/126
f 25/49/127 26/50/128 38/62/129 39/63/130
f 24/48/131 25/49/132 39/63/133 40/64/134
f 23/47/135 24/48/136 40/64/137 41/65/138
f 22/45/139 23/47/140 41/65/141 33/66/142
f 11/41/143 12/40/144 43/68/145 42/67/146
f 12/40/147 13/39/148 44/69/149 43/68/150
f 13/39/151 14/38/152 45/70/153 44/69/154
f 14/38/155 15/37/156 46/71/157 45/70/158
f 15/37/159 16/36/160 47/72/161 46/71/162
f 16/36/163 17/35/164 48/73/165 47/72/166
f 17/35/167 18/34/168 49/74/169 48/73/170
f 18/34/171 19/33/172 50/75/173 49/74/174
f 19/33/175 20/42/176 51/76/177 50/75/178
f 20/42/179 11/41/180 42/67/181 51/76/182
f 42/67/183 43/68/184 53/78/185 52/77/186
f 43/68/187 44/69/188 55/79/189 53/78/190
f 44/69/191 45/70/192 56/80/193 55/79/194
f 45/70/195 46/71/196 57/81/197 56/80/198
f 46/71/199 47/72/200 58/82/201 57/81/202
f 47/72/203 48/73/204 59/83/205 58/82/206
f 48/73/207 49/74/208 60/84/209 59/83/210
f 49/74/211 50/75/212 61/85/213 60/84/214
f 50/75/215 51/76/216 62/86/217 61/85/218
f 51/76/219 42/67/220 52/77/221 62/86/222
